<?xml version="1.0" encoding="UTF-8"?>
<svg version="1.1" xmlns="http://www.w3.org/2000/svg" width="700" height="121">
<path d="M0 0 C0.85916016 -0.01160156 1.71832031 -0.02320312 2.60351562 -0.03515625 C8.13552443 -0.00979945 12.01009254 0.84778152 16.9375 3.375 C16.9375 4.035 16.9375 4.695 16.9375 5.375 C17.68 5.601875 18.4225 5.82875 19.1875 6.0625 C22.4800747 7.6339561 23.91247109 9.37495716 25.9375 12.375 C25.9375 13.035 25.9375 13.695 25.9375 14.375 C26.5975 14.375 27.2575 14.375 27.9375 14.375 C31.02189212 20.31531075 31.39696844 25.23953461 31.3125 31.875 C31.32410156 32.78636719 31.33570313 33.69773438 31.34765625 34.63671875 C31.32306703 40.31682793 30.55938823 44.32543747 27.9375 49.375 C27.2775 49.375 26.6175 49.375 25.9375 49.375 C25.710625 50.1175 25.48375 50.86 25.25 51.625 C23.6785439 54.9175747 21.93754284 56.34997109 18.9375 58.375 C18.2775 58.375 17.6175 58.375 16.9375 58.375 C16.9375 59.035 16.9375 59.695 16.9375 60.375 C10.99718925 63.45939212 6.07296539 63.83446844 -0.5625 63.75 C-1.47386719 63.76160156 -2.38523437 63.77320313 -3.32421875 63.78515625 C-9.00432793 63.76056703 -13.01293747 62.99688823 -18.0625 60.375 C-18.0625 59.715 -18.0625 59.055 -18.0625 58.375 C-18.805 58.148125 -19.5475 57.92125 -20.3125 57.6875 C-23.6050747 56.1160439 -25.03747109 54.37504284 -27.0625 51.375 C-27.0625 50.715 -27.0625 50.055 -27.0625 49.375 C-27.7225 49.375 -28.3825 49.375 -29.0625 49.375 C-32.03214528 43.58497732 -32.52470488 38.89550603 -32.4375 32.4375 C-32.44910156 31.58220703 -32.46070312 30.72691406 -32.47265625 29.84570312 C-32.44604497 24.03113764 -31.39547292 19.70133764 -29.0625 14.375 C-28.4025 14.375 -27.7425 14.375 -27.0625 14.375 C-26.835625 13.818125 -26.60875 13.26125 -26.375 12.6875 C-24.68699964 9.71340412 -22.59573483 7.65491135 -20.0625 5.375 C-19.4025 5.375 -18.7425 5.375 -18.0625 5.375 C-18.0625 4.715 -18.0625 4.055 -18.0625 3.375 C-11.83453104 0.64710629 -6.76618633 -0.09177947 0 0 Z M-6.0625 6.375 C-6.0625 7.035 -6.0625 7.695 -6.0625 8.375 C-5.4025 8.375 -4.7425 8.375 -4.0625 8.375 C-3.7325 11.345 -3.4025 14.315 -3.0625 17.375 C-2.7325 17.375 -2.4025 17.375 -2.0625 17.375 C-2.0625 13.745 -2.0625 10.115 -2.0625 6.375 C-3.3825 6.375 -4.7025 6.375 -6.0625 6.375 Z M0.9375 6.375 C0.9375 10.005 0.9375 13.635 0.9375 17.375 C1.2675 17.375 1.5975 17.375 1.9375 17.375 C2.9275 13.745 3.9175 10.115 4.9375 6.375 C3.6175 6.375 2.2975 6.375 0.9375 6.375 Z M5.9375 6.375 C5.9375 9.675 5.9375 12.975 5.9375 16.375 C8.05788635 13.75985683 10.06841744 11.17862384 11.9375 8.375 C10.6175 8.375 9.2975 8.375 7.9375 8.375 C7.9375 7.715 7.9375 7.055 7.9375 6.375 C7.2775 6.375 6.6175 6.375 5.9375 6.375 Z M-9.0625 6.375 C-9.0625 7.035 -9.0625 7.695 -9.0625 8.375 C-10.3825 8.705 -11.7025 9.035 -13.0625 9.375 C-10.5875 12.84 -10.5875 12.84 -8.0625 16.375 C-7.16555206 12.78720825 -6.97945883 10.02881163 -7.0625 6.375 C-7.7225 6.375 -8.3825 6.375 -9.0625 6.375 Z M12.9375 10.375 C11.86974776 12.33966413 10.87196535 14.34355359 9.9375 16.375 C10.2675 17.035 10.5975 17.695 10.9375 18.375 C12.9774719 17.01176257 12.9774719 17.01176257 14.9375 15.375 C14.9375 14.715 14.9375 14.055 14.9375 13.375 C15.9275 13.045 16.9175 12.715 17.9375 12.375 C15.4625 11.385 15.4625 11.385 12.9375 10.375 Z M-15.0625 10.375 C-15.0625 11.035 -15.0625 11.695 -15.0625 12.375 C-16.3825 12.705 -17.7025 13.035 -19.0625 13.375 C-18.0725 13.375 -17.0825 13.375 -16.0625 13.375 C-15.7325 14.365 -15.4025 15.355 -15.0625 16.375 C-13.04741642 17.10823796 -13.04741642 17.10823796 -11.0625 17.375 C-12.0525 15.065 -13.0425 12.755 -14.0625 10.375 C-14.3925 10.375 -14.7225 10.375 -15.0625 10.375 Z M-20.0625 13.375 C-20.0625 14.695 -20.0625 16.015 -20.0625 17.375 C-21.0525 17.705 -22.0425 18.035 -23.0625 18.375 C-20.0925 19.365 -17.1225 20.355 -14.0625 21.375 C-15.4178326 18.83826712 -15.4178326 18.83826712 -17.0625 16.375 C-17.7225 16.375 -18.3825 16.375 -19.0625 16.375 C-19.3925 15.385 -19.7225 14.395 -20.0625 13.375 Z M17.9375 14.375 C15.4625 17.84 15.4625 17.84 12.9375 21.375 C15.9075 20.385 18.8775 19.395 21.9375 18.375 C20.6175 17.055 19.2975 15.735 17.9375 14.375 Z M-24.0625 19.375 C-24.3925 21.025 -24.7225 22.675 -25.0625 24.375 C-22.0925 24.705 -19.1225 25.035 -16.0625 25.375 C-19.15577895 22.39824541 -19.15577895 22.39824541 -23.0625 21.375 C-23.3925 20.715 -23.7225 20.055 -24.0625 19.375 Z M21.9375 20.375 C19.6275 21.695 17.3175 23.015 14.9375 24.375 C18.26284757 25.48344919 20.55932575 25.21954356 23.9375 24.375 C23.2775 23.055 22.6175 21.735 21.9375 20.375 Z M-25.0625 26.375 C-25.3925 27.695 -25.7225 29.015 -26.0625 30.375 C-22.4325 30.375 -18.8025 30.375 -15.0625 30.375 C-18.82937864 28.49156068 -20.09208963 28.15442165 -24.0625 28.375 C-24.3925 27.715 -24.7225 27.055 -25.0625 26.375 Z M22.9375 26.375 C22.9375 27.035 22.9375 27.695 22.9375 28.375 C18.4825 28.87 18.4825 28.87 13.9375 29.375 C13.9375 29.705 13.9375 30.035 13.9375 30.375 C17.5675 30.375 21.1975 30.375 24.9375 30.375 C24.9375 29.055 24.9375 27.735 24.9375 26.375 C24.2775 26.375 23.6175 26.375 22.9375 26.375 Z M-26.0625 33.375 C-25.4025 34.695 -24.7425 36.015 -24.0625 37.375 C-24.0625 36.715 -24.0625 36.055 -24.0625 35.375 C-19.6075 34.88 -19.6075 34.88 -15.0625 34.375 C-15.0625 34.045 -15.0625 33.715 -15.0625 33.375 C-18.6925 33.375 -22.3225 33.375 -26.0625 33.375 Z M13.9375 33.375 C17.70437864 35.25843932 18.96708963 35.59557835 22.9375 35.375 C22.9375 36.035 22.9375 36.695 22.9375 37.375 C23.5975 37.045 24.2575 36.715 24.9375 36.375 C24.9375 35.385 24.9375 34.395 24.9375 33.375 C21.3075 33.375 17.6775 33.375 13.9375 33.375 Z M14.9375 38.375 C17.62591859 40.62745881 19.58391875 42.25713958 22.9375 43.375 C23.2675 42.055 23.5975 40.735 23.9375 39.375 C20.9675 39.045 17.9975 38.715 14.9375 38.375 Z M-25.0625 39.375 C-24.7325 41.025 -24.4025 42.675 -24.0625 44.375 C-23.7325 43.715 -23.4025 43.055 -23.0625 42.375 C-21.40177151 41.69367549 -19.734733 41.02757873 -18.0625 40.375 C-17.4025 39.715 -16.7425 39.055 -16.0625 38.375 C-19.33525026 38.375 -21.909132 38.67425156 -25.0625 39.375 Z M-23.0625 45.375 C-21.7425 47.025 -20.4225 48.675 -19.0625 50.375 C-19.0625 49.385 -19.0625 48.395 -19.0625 47.375 C-18.0725 47.045 -17.0825 46.715 -16.0625 46.375 C-14.85367904 44.37483534 -14.85367904 44.37483534 -14.0625 42.375 C-17.36605546 42.375 -20.08358249 44.05103666 -23.0625 45.375 Z M12.9375 42.375 C14.2928326 44.91173288 14.2928326 44.91173288 15.9375 47.375 C16.5975 47.375 17.2575 47.375 17.9375 47.375 C18.2675 48.035 18.5975 48.695 18.9375 49.375 C19.9275 48.055 20.9175 46.735 21.9375 45.375 C18.9675 44.385 15.9975 43.395 12.9375 42.375 Z M-16.0625 48.375 C-16.0625 49.035 -16.0625 49.695 -16.0625 50.375 C-17.0525 50.87 -17.0525 50.87 -18.0625 51.375 C-16.0825 52.365 -16.0825 52.365 -14.0625 53.375 C-13.0725 51.065 -12.0825 48.755 -11.0625 46.375 C-13.38607511 46.19009993 -13.38607511 46.19009993 -16.0625 48.375 Z M-3.0625 46.375 C-3.7225 49.675 -4.3825 52.975 -5.0625 56.375 C-4.0725 56.705 -3.0825 57.035 -2.0625 57.375 C-2.0625 53.745 -2.0625 50.115 -2.0625 46.375 C-2.3925 46.375 -2.7225 46.375 -3.0625 46.375 Z M0.9375 46.375 C0.9375 50.005 0.9375 53.635 0.9375 57.375 C2.2575 57.375 3.5775 57.375 4.9375 57.375 C4.9375 56.715 4.9375 56.055 4.9375 55.375 C4.2775 55.375 3.6175 55.375 2.9375 55.375 C2.6075 52.405 2.2775 49.435 1.9375 46.375 C1.6075 46.375 1.2775 46.375 0.9375 46.375 Z M9.9375 46.375 C10.9275 48.685 11.9175 50.995 12.9375 53.375 C14.2575 52.385 15.5775 51.395 16.9375 50.375 C16.2775 50.375 15.6175 50.375 14.9375 50.375 C14.6075 49.385 14.2775 48.395 13.9375 47.375 C11.92241642 46.64176204 11.92241642 46.64176204 9.9375 46.375 Z M-8.0625 47.375 C-10.34942024 50.61264755 -10.34942024 50.61264755 -11.0625 54.375 C-12.0525 54.87 -12.0525 54.87 -13.0625 55.375 C-11.7425 55.375 -10.4225 55.375 -9.0625 55.375 C-8.7325 56.035 -8.4025 56.695 -8.0625 57.375 C-7.7325 54.075 -7.4025 50.775 -7.0625 47.375 C-7.3925 47.375 -7.7225 47.375 -8.0625 47.375 Z M5.9375 47.375 C6.2675 50.675 6.5975 53.975 6.9375 57.375 C7.2675 56.715 7.5975 56.055 7.9375 55.375 C10 54.75 10 54.75 11.9375 54.375 C11.12902271 53.20554208 10.31560888 52.03949539 9.5 50.875 C9.04753906 50.2253125 8.59507813 49.575625 8.12890625 48.90625 C7.73574219 48.4009375 7.34257813 47.895625 6.9375 47.375 C6.6075 47.375 6.2775 47.375 5.9375 47.375 Z " fill="#FF0000" transform="translate(57.0625,29.625)"/>
<path d="M0 0 C209.22 0 418.44 0 634 0 C634 0.99 634 1.98 634 3 C424.78 3 215.56 3 0 3 C0 2.01 0 1.02 0 0 Z " fill="#302E3B" transform="translate(63,108)"/>
<path d="M0 0 C0.98291016 0.00644531 1.96582031 0.01289062 2.97851562 0.01953125 C4.00267578 0.03628906 5.02683594 0.05304687 6.08203125 0.0703125 C7.11779297 0.07933594 8.15355469 0.08835938 9.22070312 0.09765625 C11.7788781 0.1212339 14.33658873 0.1541422 16.89453125 0.1953125 C17.55453125 1.5153125 18.21453125 2.8353125 18.89453125 4.1953125 C18.25515625 4.6284375 17.61578125 5.0615625 16.95703125 5.5078125 C14.62707122 7.10770427 14.62707122 7.10770427 13.89453125 10.1953125 C12.90453125 9.8653125 11.91453125 9.5353125 10.89453125 9.1953125 C10.89453125 7.2153125 10.89453125 5.2353125 10.89453125 3.1953125 C6.60453125 3.1953125 2.31453125 3.1953125 -2.10546875 3.1953125 C-1.37195085 6.51115093 -1.37195085 6.51115093 2.0625 7.9921875 C3.40039008 8.64723456 4.74035123 9.29806351 6.08203125 9.9453125 C18.17251754 16.11990366 18.17251754 16.11990366 20.5625 23.1640625 C21.53469534 28.16942464 20.45810176 31.75179028 17.89453125 36.1953125 C14.93293598 39.23340655 13.33405898 40.13406683 9.08203125 40.7265625 C7.6861988 40.73709708 6.29006146 40.72620985 4.89453125 40.6953125 C4.19585938 40.71078125 3.4971875 40.72625 2.77734375 40.7421875 C-2.13031056 40.7051486 -4.67536809 39.67738439 -8.10546875 36.1953125 C-9.83969767 32.72685467 -9.57049831 28.98759577 -9.10546875 25.1953125 C-7.16625653 21.61522841 -6.01622871 20.50535844 -2.16796875 19.1953125 C1.48873753 19.1953125 2.97434419 20.06436519 5.89453125 22.1953125 C6.88453125 22.8553125 7.87453125 23.5153125 8.89453125 24.1953125 C8.56453125 25.5153125 8.23453125 26.8353125 7.89453125 28.1953125 C5.25453125 27.8653125 2.61453125 27.5353125 -0.10546875 27.1953125 C-0.10546875 28.5153125 -0.10546875 29.8353125 -0.10546875 31.1953125 C1.51916967 31.24926728 3.14431666 31.28808445 4.76953125 31.3203125 C5.67445313 31.34351562 6.579375 31.36671875 7.51171875 31.390625 C10.08260119 31.43856086 10.08260119 31.43856086 11.89453125 29.1953125 C12.47867827 25.82224632 12.47867827 25.82224632 11.89453125 22.1953125 C8.49149252 18.16208141 4.8818886 15.87988949 0.20703125 13.5078125 C-5.92491319 10.37586806 -5.92491319 10.37586806 -8.10546875 8.1953125 C-8.41796875 5.1953125 -8.41796875 5.1953125 -8.10546875 2.1953125 C-4.80258539 -0.00660974 -3.83084148 -0.04428718 0 0 Z " fill="#302E3B" transform="translate(522.10546875,35.8046875)"/>
<path d="M0 0 C3.3 0 6.6 0 10 0 C10.01458252 1.04454346 10.02916504 2.08908691 10.04418945 3.1652832 C10.10215551 7.04014345 10.17938774 10.91442151 10.26245117 14.78881836 C10.29570863 16.46580559 10.32373808 18.14290497 10.34643555 19.82006836 C10.37996737 22.23079225 10.43227978 24.64048762 10.48828125 27.05078125 C10.49467117 27.80087967 10.5010611 28.55097809 10.50764465 29.32380676 C10.59888472 33.45600986 10.59888472 33.45600986 12.53198242 36.99682617 C13.01642822 37.32787354 13.50087402 37.6589209 14 38 C11.08305826 40.91694174 8.59405344 40.29146147 4.60351562 40.32226562 C3.16008789 40.31743164 3.16008789 40.31743164 1.6875 40.3125 C0.73681641 40.32861328 -0.21386719 40.34472656 -1.19335938 40.36132812 C-9.99760058 40.36748063 -9.99760058 40.36748063 -14 37 C-17.75917412 31.81493225 -17.80494289 26.16228498 -17 20 C-15.72911796 16.22151739 -13.74326731 13.66068205 -10.75 11 C-6.00145289 9.2732556 -1.74468278 10.41843907 3 12 C3 9.36 3 6.72 3 4 C1.68 3.34 0.36 2.68 -1 2 C-0.67 1.34 -0.34 0.68 0 0 Z M-8.8125 15.5 C-10.4544022 18.9566362 -11.15218245 22.16500216 -11 26 C-9.86225672 28.43063337 -8.88186104 30.11813896 -7 32 C-5.50261876 32.0979057 -4.00057108 32.12974864 -2.5 32.125 C-1.6853125 32.12757812 -0.870625 32.13015625 -0.03125 32.1328125 C1.99530377 32.2245178 1.99530377 32.2245178 3 31 C3.07313567 28.46950598 3.09247527 25.96695163 3.0625 23.4375 C3.05798828 22.72658203 3.05347656 22.01566406 3.04882812 21.28320312 C3.03700864 19.52209987 3.01907263 17.76103964 3 16 C-0.99812812 13.84118352 -4.9497818 12.3032677 -8.8125 15.5 Z " fill="#302E3B" transform="translate(448,36)"/>
<path d="M0 0 C3.3 0 6.6 0 10 0 C10.01458252 1.04454346 10.02916504 2.08908691 10.04418945 3.1652832 C10.10215551 7.04014345 10.17938774 10.91442151 10.26245117 14.78881836 C10.29570863 16.46580559 10.32373808 18.14290497 10.34643555 19.82006836 C10.37996737 22.23079225 10.43227978 24.64048762 10.48828125 27.05078125 C10.49467117 27.80087967 10.5010611 28.55097809 10.50764465 29.32380676 C10.59888472 33.45600986 10.59888472 33.45600986 12.53198242 36.99682617 C13.01642822 37.32787354 13.50087402 37.6589209 14 38 C11.08305826 40.91694174 8.59405344 40.29146147 4.60351562 40.32226562 C3.16008789 40.31743164 3.16008789 40.31743164 1.6875 40.3125 C0.73681641 40.32861328 -0.21386719 40.34472656 -1.19335938 40.36132812 C-10.20683425 40.36762685 -10.20683425 40.36762685 -14 37 C-18.04617397 31.74085922 -17.75917047 26.36859676 -17 20 C-15.75646912 16.1824939 -13.76325131 13.67844561 -10.75 11 C-6.00145289 9.2732556 -1.74468278 10.41843907 3 12 C3 9.36 3 6.72 3 4 C1.68 3.34 0.36 2.68 -1 2 C-0.67 1.34 -0.34 0.68 0 0 Z M-8.8125 15.5 C-10.93146141 19.96097138 -11.50837286 24.16203657 -10.1875 28.9375 C-9.16882581 31.14558168 -9.16882581 31.14558168 -7 32 C-5.48154798 32.09472912 -3.95889616 32.1298841 -2.4375 32.125 C-1.63183594 32.12757812 -0.82617188 32.13015625 0.00390625 32.1328125 C1.99942021 32.22011391 1.99942021 32.22011391 3 31 C3.07313567 28.46950598 3.09247527 25.96695163 3.0625 23.4375 C3.05798828 22.72658203 3.05347656 22.01566406 3.04882812 21.28320312 C3.03700864 19.52209987 3.01907263 17.76103964 3 16 C-0.99812812 13.84118352 -4.9497818 12.3032677 -8.8125 15.5 Z " fill="#302E3B" transform="translate(215,36)"/>
<path d="M0 0 C3.30668445 1.33674478 4.6617489 2.59628094 6.9375 5.3125 C8 8 8 8 7.3125 11.1875 C6 14 6 14 4 16 C-0.02104757 16.44678306 -2.13756416 16.6808704 -5.375 14.125 C-7 12 -7 12 -8 10 C-10.02463255 9.34786708 -10.02463255 9.34786708 -12 9 C-11.34 7.68 -10.68 6.36 -10 5 C-8.88625 5.4640625 -8.88625 5.4640625 -7.75 5.9375 C-5.49307824 6.8094925 -3.3549847 7.47667007 -1 8 C-1 6.68 -1 5.36 -1 4 C-4.60089451 3.05690858 -6.61789273 2.87263091 -10.1875 4.0625 C-13.66752284 6.45984907 -14.66438733 7.993162 -16 12 C-16.73512433 17.69721359 -16.28254032 22.13278504 -13 27 C-9.54346791 30.45653209 -6.89739772 31.80410409 -2 32 C2.18464662 31.14888543 5.32122351 30.46665193 8 27 C9.1875 28.5625 9.1875 28.5625 10 31 C9.12190567 34.85010591 8.52088943 37.00995635 5.17578125 39.1875 C-1.01924799 41.67885826 -6.75704991 41.12937833 -13 39 C-17.58585932 36.5070785 -20.41255938 32.93870415 -22 28 C-22.66678742 20.90612274 -23.04620118 13.18169625 -19 7 C-13.07438576 0.74518497 -8.5524271 -0.7419298 0 0 Z " fill="#302E3B" transform="translate(318,36)"/>
<path d="M0 0 C0.81146484 -0.02900391 1.62292969 -0.05800781 2.45898438 -0.08789062 C6.00720296 -0.12573053 8.42990075 -0.01397159 11.61328125 1.62890625 C14.01095336 6.06880043 13.47578074 10.6138376 13.3125 15.5625 C13.29445313 16.59375 13.27640625 17.625 13.2578125 18.6875 C13.21072712 21.23011064 13.1449805 23.77083162 13.0625 26.3125 C14.0525 26.6425 15.0425 26.9725 16.0625 27.3125 C14.39544731 29.35225949 13.50914765 30.23329302 10.87353516 30.70068359 C9.62515869 30.70575928 9.62515869 30.70575928 8.3515625 30.7109375 C6.97871094 30.71673828 6.97871094 30.71673828 5.578125 30.72265625 C4.14726562 30.70525391 4.14726562 30.70525391 2.6875 30.6875 C1.26824219 30.70490234 1.26824219 30.70490234 -0.1796875 30.72265625 C-8.93896561 30.68574918 -8.93896561 30.68574918 -12.9375 27.3125 C-14.48774464 24.21201072 -14.22742015 21.73355782 -13.9375 18.3125 C-11.16413425 13.34355304 -6.96501308 11.49678359 -1.9375 9.3125 C-3.54625 9.4053125 -3.54625 9.4053125 -5.1875 9.5 C-9.04616187 9.30706691 -10.22567788 8.91584924 -12.9375 6.3125 C-12.6075 4.6625 -12.2775 3.0125 -11.9375 1.3125 C-7.92271596 -0.02576135 -4.20511992 0.04986308 0 0 Z M-4.9375 3.3125 C-5.2675 4.3025 -5.5975 5.2925 -5.9375 6.3125 C-2.6375 6.6425 0.6625 6.9725 4.0625 7.3125 C1.0625 10.3125 1.0625 10.3125 -2.0625 12.125 C-5.1891943 14.0701773 -5.1891943 14.0701773 -5.9375 17.4375 C-5.9375 18.38625 -5.9375 19.335 -5.9375 20.3125 C-4.00248936 22.69254065 -4.00248936 22.69254065 -0.5 22.5 C3.02475747 22.47281917 3.02475747 22.47281917 6.0625 21.3125 C6.11647335 18.8747037 6.15615616 16.43810315 6.1875 14 C6.20425781 13.30970703 6.22101563 12.61941406 6.23828125 11.90820312 C6.27467794 8.14114604 6.20628864 6.52818296 4.0625 3.3125 C1.85524927 2.94887182 1.85524927 2.94887182 -0.5625 3.125 C-1.37976563 3.15207031 -2.19703125 3.17914063 -3.0390625 3.20703125 C-3.97878906 3.25923828 -3.97878906 3.25923828 -4.9375 3.3125 Z " fill="#302E3B" transform="translate(477.9375,45.6875)"/>
<path d="M0 0 C0.75087891 -0.03287109 1.50175781 -0.06574219 2.27539062 -0.09960938 C6.18760464 -0.13745841 8.16262383 0.18816545 11.55078125 2.30078125 C14.45065601 6.82233354 14.30531994 10.79233776 14.3125 16.0625 C14.345669 17.95058149 14.3819887 19.83861098 14.421875 21.7265625 C14.42670898 22.55881348 14.43154297 23.39106445 14.43652344 24.24853516 C14.47722233 26.6169972 14.47722233 26.6169972 15.5625 29.4375 C11.8298817 31.30380915 7.35779215 30.66548906 3.25 30.6875 C2.29931641 30.708125 1.34863281 30.72875 0.36914062 30.75 C-8.53724232 30.7997911 -8.53724232 30.7997911 -12.4375 27.4375 C-13.9375 24.625 -13.9375 24.625 -14.4375 21.4375 C-12.83361139 16.72018057 -10.54957896 14.17888597 -6.4375 11.4375 C-3.625 10.1875 -3.625 10.1875 -1.4375 9.4375 C-2.51 9.47875 -3.5825 9.52 -4.6875 9.5625 C-8.09497485 9.4489175 -9.64489631 9.22476636 -12.4375 7.4375 C-12.4375 5.7875 -12.4375 4.1375 -12.4375 2.4375 C-8.57135109 -0.11600419 -4.47199723 0.0343706 0 0 Z M-5.4375 3.4375 C-5.4375 4.4275 -5.4375 5.4175 -5.4375 6.4375 C-2.1375 6.4375 1.1625 6.4375 4.5625 6.4375 C3.38898048 9.95805855 2.65927617 10.25973387 -0.4375 12.0625 C-3.0961047 13.5431001 -3.0961047 13.5431001 -5.4375 15.4375 C-5.6875773 17.89559998 -5.6875773 17.89559998 -5.4375 20.4375 C-3.50147953 22.80948957 -3.50147953 22.80948957 0 22.6875 C3.66670618 22.72559647 3.66670618 22.72559647 6.5625 20.4375 C6.9663693 17.67886649 6.9663693 17.67886649 6.8125 14.5625 C6.79703125 13.51320313 6.7815625 12.46390625 6.765625 11.3828125 C6.59392466 8.89315759 6.41167314 6.77816955 5.5625 4.4375 C3.15704362 3.23477181 1.61253047 3.33678528 -1.0625 3.375 C-1.87976563 3.38402344 -2.69703125 3.39304688 -3.5390625 3.40234375 C-4.16554688 3.41394531 -4.79203125 3.42554688 -5.4375 3.4375 Z " fill="#302E3B" transform="translate(346.4375,45.5625)"/>
<path d="M0 0 C0.81146484 -0.01611328 1.62292969 -0.03222656 2.45898438 -0.04882812 C3.24466797 -0.04947266 4.03035156 -0.05011719 4.83984375 -0.05078125 C5.55390381 -0.05376221 6.26796387 -0.05674316 7.00366211 -0.05981445 C9.76446418 0.43944123 11.09192299 1.32207858 13.0625 3.3125 C13.57666016 5.60913086 13.57666016 5.60913086 13.6015625 8.27734375 C13.62476563 9.24220703 13.64796875 10.20707031 13.671875 11.20117188 C13.67703125 12.20728516 13.6821875 13.21339844 13.6875 14.25 C13.71307434 16.23840499 13.74662105 18.22672727 13.7890625 20.21484375 C13.79800537 21.53730103 13.79800537 21.53730103 13.80712891 22.88647461 C14.07766736 25.45658988 14.76719199 27.09670609 16.0625 29.3125 C12.21465617 31.23642191 7.54577647 30.62779995 3.3125 30.6875 C2.3225 30.72488281 1.3325 30.76226562 0.3125 30.80078125 C-7.90755166 30.89968561 -7.90755166 30.89968561 -11.6015625 27.97265625 C-13.9375 25.3125 -13.9375 25.3125 -14.5625 22.375 C-13.74559269 18.37215417 -12.67189723 16.38036031 -9.9375 13.3125 C-7.03336586 11.69298286 -4.06009924 10.4467775 -0.9375 9.3125 C-2.175 9.374375 -3.4125 9.43625 -4.6875 9.5 C-7.71961302 9.51612826 -8.75998296 9.41901023 -11.4375 7.8125 C-11.9325 7.3175 -12.4275 6.8225 -12.9375 6.3125 C-12.625 4.4375 -12.625 4.4375 -11.9375 2.3125 C-7.87864966 -0.39340023 -4.7623546 -0.01882354 0 0 Z M-4.9375 3.3125 C-5.2675 4.3025 -5.5975 5.2925 -5.9375 6.3125 C-2.3075 6.3125 1.3225 6.3125 5.0625 6.3125 C2.96426742 8.56615722 1.09495764 10.29317998 -1.5625 11.875 C-4.19493604 13.23867739 -4.19493604 13.23867739 -5.9375 16.3125 C-5.65475862 19.62336259 -5.65475862 19.62336259 -3.9375 22.3125 C-0.27405389 22.44818319 2.56865721 22.47711426 6.0625 21.3125 C6.11632106 18.68722811 6.15608313 16.06305287 6.1875 13.4375 C6.20425781 12.69113281 6.22101563 11.94476563 6.23828125 11.17578125 C6.2558959 9.22055539 6.16570189 7.26507979 6.0625 5.3125 C4.27592243 3.09879949 4.27592243 3.09879949 1.8984375 3.1171875 C1.08632813 3.14039063 0.27421875 3.16359375 -0.5625 3.1875 C-1.78839844 3.21457031 -1.78839844 3.21457031 -3.0390625 3.2421875 C-3.97878906 3.27699219 -3.97878906 3.27699219 -4.9375 3.3125 Z " fill="#302E3B" transform="translate(411.9375,45.6875)"/>
<path d="M0 0 C0.81146484 -0.01611328 1.62292969 -0.03222656 2.45898438 -0.04882812 C3.24466797 -0.04947266 4.03035156 -0.05011719 4.83984375 -0.05078125 C5.55390381 -0.05376221 6.26796387 -0.05674316 7.00366211 -0.05981445 C9.76446418 0.43944123 11.09192299 1.32207858 13.0625 3.3125 C13.57666016 5.60913086 13.57666016 5.60913086 13.6015625 8.27734375 C13.62476563 9.24220703 13.64796875 10.20707031 13.671875 11.20117188 C13.67703125 12.20728516 13.6821875 13.21339844 13.6875 14.25 C13.71307434 16.23840499 13.74662105 18.22672727 13.7890625 20.21484375 C13.79800537 21.53730103 13.79800537 21.53730103 13.80712891 22.88647461 C14.07766736 25.45658988 14.76719199 27.09670609 16.0625 29.3125 C12.21465617 31.23642191 7.54577647 30.62779995 3.3125 30.6875 C2.3225 30.72488281 1.3325 30.76226562 0.3125 30.80078125 C-7.90755166 30.89968561 -7.90755166 30.89968561 -11.6015625 27.97265625 C-13.9375 25.3125 -13.9375 25.3125 -14.5625 22.375 C-13.74559269 18.37215417 -12.67189723 16.38036031 -9.9375 13.3125 C-7.03336586 11.69298286 -4.06009924 10.4467775 -0.9375 9.3125 C-2.175 9.374375 -3.4125 9.43625 -4.6875 9.5 C-7.71961302 9.51612826 -8.75998296 9.41901023 -11.4375 7.8125 C-11.9325 7.3175 -12.4275 6.8225 -12.9375 6.3125 C-12.625 4.4375 -12.625 4.4375 -11.9375 2.3125 C-7.87864966 -0.39340023 -4.7623546 -0.01882354 0 0 Z M-4.9375 3.3125 C-5.2675 4.3025 -5.5975 5.2925 -5.9375 6.3125 C-2.6375 6.6425 0.6625 6.9725 4.0625 7.3125 C1.0625 10.3125 1.0625 10.3125 -1.5 11.8125 C-4.18468511 13.23054659 -4.18468511 13.23054659 -5.9375 16.3125 C-5.65475862 19.62336259 -5.65475862 19.62336259 -3.9375 22.3125 C-0.27405389 22.44818319 2.56865721 22.47711426 6.0625 21.3125 C6.11632106 18.68722811 6.15608313 16.06305287 6.1875 13.4375 C6.20425781 12.69113281 6.22101563 11.94476563 6.23828125 11.17578125 C6.2558959 9.22055539 6.16570189 7.26507979 6.0625 5.3125 C4.27592243 3.09879949 4.27592243 3.09879949 1.8984375 3.1171875 C1.08632813 3.14039063 0.27421875 3.16359375 -0.5625 3.1875 C-1.78839844 3.21457031 -1.78839844 3.21457031 -3.0390625 3.2421875 C-3.97878906 3.27699219 -3.97878906 3.27699219 -4.9375 3.3125 Z " fill="#302E3B" transform="translate(259.9375,45.6875)"/>
<path d="M0 0 C1.01513672 -0.020625 2.03027344 -0.04125 3.07617188 -0.0625 C4.53700195 -0.07023437 4.53700195 -0.07023437 6.02734375 -0.078125 C6.9205835 -0.0874707 7.81382324 -0.09681641 8.73413086 -0.10644531 C11.48787529 0.31511984 12.349407 1.1117212 14.0625 3.25 C13.24394531 3.83136719 12.42539063 4.41273437 11.58203125 5.01171875 C8.84347009 7.75027991 8.67187117 9.96234678 8.57421875 13.76953125 C8.6073136 15.8677447 8.66674194 17.96567786 8.75 20.0625 C8.77255859 21.13693359 8.79511719 22.21136719 8.81835938 23.31835938 C8.87714402 25.9636685 8.95926043 28.60611413 9.0625 31.25 C9.7225 31.25 10.3825 31.25 11.0625 31.25 C11.375 33.5 11.375 33.5 11.0625 36.25 C7.94167084 39.7609328 4.93244286 40.91580304 0.2578125 41.2890625 C-3.57302151 41.22089819 -7.3764321 40.6980691 -10.9375 39.25 C-12.9375 36.25 -12.9375 36.25 -12.875 33.3125 C-11.72330061 29.55028198 -10.15741837 28.39661225 -6.9375 26.25 C-5.9475 28.23 -4.9575 30.21 -3.9375 32.25 C-2.2875 32.25 -0.6375 32.25 1.0625 32.25 C1.0625 24.66 1.0625 17.07 1.0625 9.25 C0.4025 9.25 -0.2575 9.25 -0.9375 9.25 C-0.9375 8.26 -0.9375 7.27 -0.9375 6.25 C1.3725 5.59 3.6825 4.93 6.0625 4.25 C2.4325 4.25 -1.1975 4.25 -4.9375 4.25 C-3.9475 5.735 -3.9475 5.735 -2.9375 7.25 C-3.125 9.375 -3.125 9.375 -3.9375 11.25 C-4.9275 11.58 -5.9175 11.91 -6.9375 12.25 C-7.5975 11.92 -8.2575 11.59 -8.9375 11.25 C-9.081875 10.63125 -9.22625 10.0125 -9.375 9.375 C-9.77268238 7.15303614 -9.77268238 7.15303614 -11.5 5.6875 C-11.974375 5.213125 -12.44875 4.73875 -12.9375 4.25 C-12.9375 3.26 -12.9375 2.27 -12.9375 1.25 C-9.05869395 -0.68940303 -4.26635864 0.02158815 0 0 Z " fill="#302E3B" transform="translate(147.9375,35.75)"/>
<path d="M0 0 C3.96 0 7.92 0 12 0 C12 0.99 12 1.98 12 3 C12.515625 2.505 13.03125 2.01 13.5625 1.5 C16.9238388 -0.56851618 19.11959911 -0.48505011 23 0 C25.171875 1.35546875 25.171875 1.35546875 27 4 C27.6384716 7.57582102 27.69688918 11.12397956 27.75 14.75 C27.77964844 15.73355469 27.80929688 16.71710937 27.83984375 17.73046875 C27.91042411 20.15372776 27.96317701 22.57603154 28 25 C28.66 25.33 29.32 25.66 30 26 C29.67 26.99 29.34 27.98 29 29 C25.37 29 21.74 29 18 29 C18 27.68 18 26.36 18 25 C18.66 25 19.32 25 20 25 C19.505 15.595 19.505 15.595 19 6 C16.36 6.66 13.72 7.32 11 8 C10.94607603 10.77109307 10.90636545 13.54113818 10.875 16.3125 C10.85824219 17.09818359 10.84148437 17.88386719 10.82421875 18.69335938 C10.81455078 19.8293457 10.81455078 19.8293457 10.8046875 20.98828125 C10.78897705 22.03302612 10.78897705 22.03302612 10.77294922 23.09887695 C10.89425405 25.331173 10.89425405 25.331173 13 28 C11.26150372 29.73849628 8.9213363 29.17216296 6.5625 29.1875 C5.57378906 29.20167969 4.58507812 29.21585938 3.56640625 29.23046875 C1 29 1 29 -1 27 C-0.34 26.34 0.32 25.68 1 25 C1.29409112 22.72190478 1.29409112 22.72190478 1.23046875 20.09765625 C1.22853516 19.12505859 1.22660156 18.15246094 1.22460938 17.15039062 C1.21236328 16.13138672 1.20011719 15.11238281 1.1875 14.0625 C1.18685547 13.04736328 1.18621094 12.03222656 1.18554688 10.98632812 C1.20696847 5.4030476 1.20696847 5.4030476 0 0 Z " fill="#302E3B" transform="translate(165,47)"/>
<path d="M0 0 C5.33333333 0 10.66666667 0 16 0 C16.67160156 -0.04640625 17.34320313 -0.0928125 18.03515625 -0.140625 C20.0625 -0.25 20.0625 -0.25 24 0 C26.11524134 2.08624906 26.91868967 3.4313523 27.34057617 6.38183594 C27.32486572 7.24067383 27.30915527 8.09951172 27.29296875 8.984375 C27.28330078 9.91894531 27.27363281 10.85351562 27.26367188 11.81640625 C27.23853516 12.78449219 27.21339844 13.75257812 27.1875 14.75 C27.16719727 16.22533203 27.16719727 16.22533203 27.14648438 17.73046875 C27.11118726 20.15420415 27.06188054 22.57682145 27 25 C27.99 25.33 28.98 25.66 30 26 C29.67 26.99 29.34 27.98 29 29 C25.37 29 21.74 29 18 29 C18 27.68 18 26.36 18 25 C18.66 25 19.32 25 20 25 C19.67 19.06 19.34 13.12 19 7 C13.52174919 6.5527864 13.52174919 6.5527864 11 8 C11 13.61 11 19.22 11 25 C11.66 25.33 12.32 25.66 13 26 C12.67 26.99 12.34 27.98 12 29 C8.37 29 4.74 29 1 29 C1 27.68 1 26.36 1 25 C1.66 25 2.32 25 3 25 C2.8899083 21.58268208 2.75932939 18.16644426 2.625 14.75 C2.57859375 13.29787109 2.57859375 13.29787109 2.53125 11.81640625 C2.49257813 10.88183594 2.45390625 9.94726562 2.4140625 8.984375 C2.3826416 8.12553711 2.3512207 7.26669922 2.31884766 6.38183594 C1.98283796 3.8717972 1.25808272 2.18067672 0 0 Z " fill="#302E3B" transform="translate(365,47)"/>
<path d="M0 0 C5.61 0 11.22 0 17 0 C17 0.66 17 1.32 17 2 C18.010625 1.67 19.02125 1.34 20.0625 1 C23.75479911 -0.07001321 27.15248207 -0.15704155 31 0 C30.52341917 5.77109597 28.83339298 9.57466383 26 14.5625 C22.36057461 21.3081916 21.11502953 26.4803299 21.1328125 34.20703125 C21 37 21 37 19 40 C16.625 39.75 16.625 39.75 14 39 C12.6875 36.9375 12.6875 36.9375 12 35 C11.01 35 10.02 35 9 35 C9.33 33.68 9.66 32.36 10 31 C11.32 31 12.64 31 14 31 C12.77436039 24.01524697 10.58776852 18.77133034 7 12.6875 C6.10368104 11.12918547 5.20783093 9.57060116 4.3125 8.01171875 C3.91675781 7.33584717 3.52101563 6.65997559 3.11328125 5.96362305 C2.00730198 4.01287935 1.00285504 2.00571007 0 0 Z M10 2 C11.6658292 8.16356805 14.87805286 13.48259656 18 19 C18.66 19 19.32 19 20 19 C22.50964189 14.40093532 24.61033325 10.3254456 25 5 C24.67 4.67 24.34 4.34 24 4 C21.97591245 4.09002398 19.95455713 4.24641038 17.9375 4.4375 C16.83277344 4.53933594 15.72804688 4.64117187 14.58984375 4.74609375 C13.30787109 4.87177734 13.30787109 4.87177734 12 5 C12 4.01 12 3.02 12 2 C11.34 2 10.68 2 10 2 Z " fill="#302E3B" transform="translate(669,47)"/>
<path d="M0 0 C4.3605334 4.08800006 5.21922132 7.99173525 5.4375 13.8125 C5.29965057 19.36093962 4.35011979 22.47198542 1 26.875 C-3.67956042 29.99470695 -8.52554283 29.5837144 -14 28.875 C-17.48203497 27.26994769 -19.44850287 25.01616015 -21.12890625 21.5390625 C-22.9768214 15.88759106 -22.70864279 9.96363138 -20.8125 4.375 C-15.84840764 -2.47202394 -7.60276202 -2.85103576 0 0 Z M-14 3.875 C-16.48386059 7.60079089 -16.3804212 9.46211402 -16 13.875 C-15.1155391 16.82207246 -15.1155391 16.82207246 -13 18.875 C-9.64407137 20.21160145 -9.64407137 20.21160145 -6 19.875 C-2.85641749 18.1489971 -2.85641749 18.1489971 -1 14.875 C-0.22536609 10.72148675 -0.36833059 7.20483033 -2.1875 3.375 C-6.53511683 -0.22302772 -9.71195206 0.62999075 -14 3.875 Z " fill="#302E3B" transform="translate(568,47.125)"/>
<path d="M0 0 C2.5654594 2.5654594 2.54046087 4.47686668 3 8 C3.89203125 7.77183594 4.7840625 7.54367188 5.703125 7.30859375 C6.87359375 7.02113281 8.0440625 6.73367187 9.25 6.4375 C10.41015625 6.14746094 11.5703125 5.85742188 12.765625 5.55859375 C16 5 16 5 20 6 C18.68 11.61 17.36 17.22 16 23 C17.98 23.99 19.96 24.98 22 26 C18.09449051 30.02498971 13.96429692 33.68757326 9.6875 37.3125 C9.04232422 37.86228516 8.39714844 38.41207031 7.73242188 38.97851562 C6.15656558 40.32091173 4.57850879 41.66072394 3 43 C2 41 2 41 2.9375 37.5 C5.32219517 28.45122516 4.42230936 19.21481873 -0.125 10.95703125 C-0.49625 10.35246094 -0.8675 9.74789062 -1.25 9.125 C-3 6 -3 6 -2.875 3.6875 C-2 2 -2 2 0 0 Z " fill="#FE0000" transform="translate(87,35)"/>
<path d="M0 0 C3.28834617 2.79042625 5.12735689 6.47328176 7.1875 10.1875 C7.55552734 10.84169922 7.92355469 11.49589844 8.30273438 12.16992188 C9.2062466 13.77746961 10.1037241 15.38840651 11 17 C14.55079859 16.33758211 17.67457466 15.42518229 21 14 C20.85769192 15.41702513 20.71099254 16.8336096 20.5625 18.25 C20.48128906 19.03890625 20.40007812 19.8278125 20.31640625 20.640625 C20.02365007 22.82364639 19.57935581 24.8773182 19 27 C17.97261719 26.69964844 16.94523437 26.39929688 15.88671875 26.08984375 C3.39283312 22.59512459 -5.58725536 22.86241845 -18 27 C-18.66 22.71 -19.32 18.42 -20 14 C-16.24725576 15.25091475 -12.64125692 16.50065891 -9 18 C-8.74476562 17.31550781 -8.48953125 16.63101562 -8.2265625 15.92578125 C-6.81150892 12.55038274 -5.12741434 9.40025962 -3.375 6.1875 C-2.88773438 5.2912793 -2.88773438 5.2912793 -2.390625 4.37695312 C-1.59620849 2.91662865 -0.79844624 1.45812509 0 0 Z " fill="#FF0000" transform="translate(56,5)"/>
<path d="M0 0 C1.65 1.65 3.3 3.3 5 5 C4.59007813 5.61746094 4.18015625 6.23492187 3.7578125 6.87109375 C-3.25121052 17.88766821 -4.17873734 27.45360003 -1.4375 40.09375 C-1.293125 40.7228125 -1.14875 41.351875 -1 42 C-5.17533291 40.28256011 -8.26388706 37.36722009 -11.625 34.4375 C-15.55820931 30.85426322 -15.55820931 30.85426322 -20 28 C-19 25 -19 25 -16.9375 23.8125 C-16.298125 23.544375 -15.65875 23.27625 -15 23 C-15.13277344 22.3709375 -15.26554688 21.741875 -15.40234375 21.09375 C-15.57894531 20.2378125 -15.75554688 19.381875 -15.9375 18.5 C-16.11152344 17.6646875 -16.28554688 16.829375 -16.46484375 15.96875 C-17.11979848 12.33542447 -17.54207794 8.66337652 -18 5 C-12.72 5.66 -7.44 6.32 -2 7 C-1.34 4.69 -0.68 2.38 0 0 Z " fill="#FF0000" transform="translate(25,35)"/>
<path d="M0 0 C0.67224609 -0.00322266 1.34449219 -0.00644531 2.03710938 -0.00976562 C5.70708778 0.03032351 7.30992617 0.22745078 10.4375 2.3125 C10.4375 5 10.4375 5 9.4375 8.3125 C6.98759908 10.36480363 4.24308674 11.79983393 1.4375 13.3125 C-0.68560897 14.55876942 -2.58504407 15.82940805 -4.5625 17.3125 C-4.5625 18.3025 -4.5625 19.2925 -4.5625 20.3125 C-2.97955218 20.36687607 -1.39605744 20.40546271 0.1875 20.4375 C1.06921875 20.46070312 1.9509375 20.48390625 2.859375 20.5078125 C5.5510858 20.30389502 7.13654974 19.67801721 9.4375 18.3125 C10.625 20.5 10.625 20.5 11.4375 23.3125 C10.11985793 26.21131256 9.31624663 27.87312668 6.4375 29.3125 C-8.14356889 30.5334029 -8.14356889 30.5334029 -12.4375 26.9375 C-16.7516751 21.60822488 -16.15259344 15.95711381 -15.5625 9.3125 C-12.85995619 1.83499537 -7.41679566 -0.09425058 0 0 Z M-7.9375 4.9375 C-10.33472954 8.44114318 -10.89329264 11.5167685 -10.125 15.6875 C-9.939375 16.22375 -9.75375 16.76 -9.5625 17.3125 C-8.9025 17.3125 -8.2425 17.3125 -7.5625 17.3125 C-7.005625 16.57 -6.44875 15.8275 -5.875 15.0625 C-3.04748862 11.70005403 -0.43868348 10.32513373 3.4375 8.3125 C3.4375 6.9925 3.4375 5.6725 3.4375 4.3125 C-0.47171526 2.35789237 -4.35015626 2.48300165 -7.9375 4.9375 Z " fill="#302E3B" transform="translate(636.5625,46.6875)"/>
<path d="M0 0 C2.0625 1.8125 2.0625 1.8125 3.0625 4.3125 C3.0625 6.8125 3.0625 6.8125 1.9375 8.625 C-0.5444553 10.19690503 -2.04586622 10.17395422 -4.9375 9.8125 C-5.9275 9.1525 -6.9175 8.4925 -7.9375 7.8125 C-7.9375 6.8225 -7.9375 5.8325 -7.9375 4.8125 C-6.6175 4.4825 -5.2975 4.1525 -3.9375 3.8125 C-6.68711511 2.86642193 -6.68711511 2.86642193 -9.9375 2.8125 C-12.9780988 4.6860887 -12.9780988 4.6860887 -14.9375 7.8125 C-15.34715996 11.70426961 -15.13104869 15.08266034 -13.9375 18.8125 C-10.86498989 19.70359922 -8.07102607 19.97589724 -4.875 20 C-4.01777344 20.01417969 -3.16054688 20.02835938 -2.27734375 20.04296875 C0.33448309 19.97096085 0.33448309 19.97096085 3.0625 17.8125 C5.0625 20.8125 5.0625 20.8125 4.875 23.3125 C3.95122767 26.15487639 3.47906768 27.07790848 1.0625 28.8125 C-2.3359375 29.24609375 -2.3359375 29.24609375 -6.3125 29.25 C-7.61960937 29.26933594 -8.92671875 29.28867188 -10.2734375 29.30859375 C-14.4597211 28.74179416 -16.03039955 27.82002755 -18.9375 24.8125 C-22.33663077 19.93011216 -21.50082568 13.47392304 -20.9375 7.8125 C-19.15614109 3.83869936 -17.74506513 2.36311259 -14.1875 -0.0625 C-9.15979764 -1.80285851 -5.06022533 -2.04562301 0 0 Z " fill="#302E3B" transform="translate(597.9375,47.1875)"/>
<path d="M0 0 C-0.33 3.63 -0.66 7.26 -1 11 C0.98 10.67 2.96 10.34 5 10 C5.91058531 13.07322544 6.08886184 15.80097361 6 19 C4.68 19.33 3.36 19.66 2 20 C1.34 19.01 0.68 18.02 0 17 C-0.33 22.94 -0.66 28.88 -1 35 C-0.01 35.33 0.98 35.66 2 36 C1.67 36.99 1.34 37.98 1 39 C-2.63 39 -6.26 39 -10 39 C-10.495 37.515 -10.495 37.515 -11 36 C-10.01 35.505 -10.01 35.505 -9 35 C-8.94197302 31.56257082 -8.90639514 28.12526747 -8.875 24.6875 C-8.85824219 23.71103516 -8.84148438 22.73457031 -8.82421875 21.72851562 C-8.81777344 20.79072266 -8.81132813 19.85292969 -8.8046875 18.88671875 C-8.79421387 18.02264404 -8.78374023 17.15856934 -8.77294922 16.26831055 C-8.84909832 13.71819279 -8.84909832 13.71819279 -11 11 C-10.01 10.67 -9.02 10.34 -8 10 C-8.66 8.35 -9.32 6.7 -10 5 C-8.71186658 4.16121545 -7.41936744 3.32913217 -6.125 2.5 C-5.40570312 2.0359375 -4.68640625 1.571875 -3.9453125 1.09375 C-2 0 -2 0 0 0 Z " fill="#302E3B" transform="translate(661,37)"/>
<path d="M0 0 C3.96 0 7.92 0 12 0 C11.34 1.32 10.68 2.64 10 4 C9.63820497 6.41179904 9.63820497 6.41179904 9.5859375 8.984375 C9.52792969 10.38623047 9.52792969 10.38623047 9.46875 11.81640625 C9.42234375 13.26853516 9.42234375 13.26853516 9.375 14.75 C9.31699219 16.22533203 9.31699219 16.22533203 9.2578125 17.73046875 C9.16371574 20.15346037 9.07807672 22.57644796 9 25 C9.99 25.33 10.98 25.66 12 26 C11.67 26.99 11.34 27.98 11 29 C7.37 29 3.74 29 0 29 C-0.33 28.01 -0.66 27.02 -1 26 C-0.34 25.67 0.32 25.34 1 25 C1.02900455 21.3958502 1.04680018 17.79173038 1.0625 14.1875 C1.07087891 13.16333984 1.07925781 12.13917969 1.08789062 11.08398438 C1.09272461 9.60961914 1.09272461 9.60961914 1.09765625 8.10546875 C1.10551147 6.74651489 1.10551147 6.74651489 1.11352539 5.36010742 C1.09920981 2.84715961 1.09920981 2.84715961 0 0 Z " fill="#302E3B" transform="translate(231,47)"/>
<path d="M0 0 C3.63 0 7.26 0 11 0 C10.67 0.99 10.34 1.98 10 3 C9.85222064 4.69867188 9.75252934 6.40177489 9.68359375 8.10546875 C9.64169922 9.08837891 9.59980469 10.07128906 9.55664062 11.08398438 C9.51732422 12.10814453 9.47800781 13.13230469 9.4375 14.1875 C9.39431641 15.22326172 9.35113281 16.25902344 9.30664062 17.32617188 C9.20055634 19.8839819 9.09849854 22.44188845 9 25 C9.99 25.33 10.98 25.66 12 26 C11.67 26.99 11.34 27.98 11 29 C7.37 29 3.74 29 0 29 C0 27.68 0 26.36 0 25 C0.66 25 1.32 25 2 25 C2 17.74 2 10.48 2 3 C1.01 2.67 0.02 2.34 -1 2 C-0.67 1.34 -0.34 0.68 0 0 Z " fill="#302E3B" transform="translate(606,47)"/>
<path d="M0 0 C14.52 0 29.04 0 44 0 C43.67 0.99 43.34 1.98 43 3 C28.81 3 14.62 3 0 3 C0 2.01 0 1.02 0 0 Z " fill="#302E3B" transform="translate(7,108)"/>
<path d="M0 0 C1.65 0 3.3 0 5 0 C6.03026944 6.69675136 6.10152799 13.2314676 6 20 C3.69 20 1.38 20 -1 20 C-0.67 13.4 -0.34 6.8 0 0 Z " fill="#FF0000" transform="translate(54,98)"/>
<path d="M0 0 C0.99 0.33 1.98 0.66 3 1 C4.1875 4.5625 4.1875 4.5625 5 8 C5.28875 7.4225 5.5775 6.845 5.875 6.25 C6.91666667 4.16666667 7.95833333 2.08333333 9 0 C9.66 0 10.32 0 11 0 C11 4.29 11 8.58 11 13 C10.34 13 9.68 13 9 13 C8.67 11.68 8.34 10.36 8 9 C7.34 10.32 6.68 11.64 6 13 C5.34 13 4.68 13 4 13 C3.67 11.68 3.34 10.36 3 9 C2.67 10.32 2.34 11.64 2 13 C1.34 13 0.68 13 0 13 C0 8.71 0 4.42 0 0 Z " fill="#302E3B" transform="translate(536,92)"/>
<path d="M0 0 C2.66735273 2.48952921 4.55746343 4.63408134 6 8 C6.33 5.36 6.66 2.72 7 0 C7.66 0.33 8.32 0.66 9 1 C9 4.96 9 8.92 9 13 C8.01 13 7.02 13 6 13 C4.02 9.535 4.02 9.535 2 6 C1.67 8.31 1.34 10.62 1 13 C0.34 13 -0.32 13 -1 13 C-1.02686553 11.02090602 -1.04633375 9.04171029 -1.0625 7.0625 C-1.07410156 5.96035156 -1.08570313 4.85820313 -1.09765625 3.72265625 C-1 1 -1 1 0 0 Z " fill="#302E3B" transform="translate(583,92)"/>
<path d="M0 0 C7.52350699 0.48538755 7.52350699 0.48538755 9.5625 2.6875 C10.13893148 5.73435209 9.77990165 8.01037702 9 11 C7 13 7 13 3.375 13.125 C2.26125 13.08375 1.1475 13.0425 0 13 C0 8.71 0 4.42 0 0 Z M2 2 C2 4.97 2 7.94 2 11 C3.65 11 5.3 11 7 11 C7.67673447 7.59679066 7.67673447 7.59679066 8 4 C7.34 3.34 6.68 2.68 6 2 C4.68 2 3.36 2 2 2 Z " fill="#302E3B" transform="translate(619,92)"/>
<path d="M0 0 C2.12038635 2.61514317 4.13091744 5.19637616 6 8 C6.33 5.36 6.66 2.72 7 0 C7.33 0 7.66 0 8 0 C8 4.29 8 8.58 8 13 C7.34 13 6.68 13 6 13 C4.02 9.535 4.02 9.535 2 6 C1.67 8.31 1.34 10.62 1 13 C0.34 13 -0.32 13 -1 13 C-1.02686553 11.02090602 -1.04633375 9.04171029 -1.0625 7.0625 C-1.07410156 5.96035156 -1.08570313 4.85820313 -1.09765625 3.72265625 C-1 1 -1 1 0 0 Z " fill="#302E3B" transform="translate(686,92)"/>
<path d="M0 0 C2.64 0 5.28 0 8 0 C8 0.66 8 1.32 8 2 C6.02 2 4.04 2 2 2 C2 3.32 2 4.64 2 6 C3.98 6 5.96 6 8 6 C8 6.33 8 6.66 8 7 C6.02 7 4.04 7 2 7 C2 8.32 2 9.64 2 11 C3.98 11 5.96 11 8 11 C8.33 11.66 8.66 12.32 9 13 C6.03 13 3.06 13 0 13 C0 8.71 0 4.42 0 0 Z " fill="#302E3B" transform="translate(646,92)"/>
<path d="M0 0 C0.7425 0.2475 1.485 0.495 2.25 0.75 C2.25 1.74 2.25 2.73 2.25 3.75 C1.445625 3.564375 0.64125 3.37875 -0.1875 3.1875 C-1.4559375 2.9709375 -1.4559375 2.9709375 -2.75 2.75 C-4.10618499 3.87534105 -4.10618499 3.87534105 -3.8125 6.8125 C-3.791875 7.781875 -3.77125 8.75125 -3.75 9.75 C-0.78 10.245 -0.78 10.245 2.25 10.75 C2.25 9.76 2.25 8.77 2.25 7.75 C1.26 7.42 0.27 7.09 -0.75 6.75 C0.9 6.75 2.55 6.75 4.25 6.75 C3.375 11.625 3.375 11.625 2.25 12.75 C-2.99050633 13.2056962 -2.99050633 13.2056962 -5.625 11.625 C-7.30468045 8.82553259 -7.20742277 6.95195936 -6.75 3.75 C-4.61304198 0.66328286 -3.81689239 -0.34699022 0 0 Z " fill="#302E3B" transform="translate(662.75,92.25)"/>
<path d="M0 0 C6 0 6 0 9 2 C8.835 2.78375 8.67 3.5675 8.5 4.375 C7.78202136 8.14438785 8.21545182 9.65397217 10 13 C6.125 11.25 6.125 11.25 5 9 C2.97536745 8.34786708 2.97536745 8.34786708 1 8 C1 9.65 1 11.3 1 13 C0.67 13 0.34 13 0 13 C0 8.71 0 4.42 0 0 Z M1 2 C1 3.32 1 4.64 1 6 C2.65 6 4.3 6 6 6 C6.33 4.68 6.66 3.36 7 2 C5.02 2 3.04 2 1 2 Z " fill="#302E3B" transform="translate(635,92)"/>
<path d="M0 0 C4 4 4 4 6 7 C6.33 5.02 6.66 3.04 7 1 C7.66 1 8.32 1 9 1 C9 4.96 9 8.92 9 13 C5.00003714 11.66667905 4.16217663 9.5042173 2 6 C1.67 8.31 1.34 10.62 1 13 C0.67 13 0.34 13 0 13 C0 8.71 0 4.42 0 0 Z " fill="#302E3B" transform="translate(608,92)"/>
<path d="M0 0 C2 3 2 3 1.75 6.5625 C1 10 1 10 -1 12 C-4 12.3125 -4 12.3125 -7 12 C-9.46943529 8.29584707 -9.46913089 6.37855495 -9 2 C-6.1966047 -1.32254258 -3.99398664 -1.47146876 0 0 Z M-6 1 C-7.28776153 3.77825456 -7.28776153 3.77825456 -8 7 C-6.75651531 9.38305196 -6.75651531 9.38305196 -5 11 C-3.35 10.34 -1.7 9.68 0 9 C0.16681109 6.08347826 0.16681109 6.08347826 0 3 C-0.66 2.34 -1.32 1.68 -2 1 C-3.32 1 -4.64 1 -6 1 Z " fill="#302E3B" transform="translate(579,93)"/>
<path d="M0 0 C2.4375 0.0625 2.4375 0.0625 5 1 C6.9375 3.1875 6.9375 3.1875 8 6 C6.8 11.2 6.8 11.2 5 13 C2.125 13.375 2.125 13.375 -1 13 C-3 10.875 -3 10.875 -4 8 C-3.23827309 4.46835704 -2.56128588 2.56128588 0 0 Z M0 2 C-2.36692966 4.84826598 -2.36692966 4.84826598 -1.625 8.1875 C-1.41875 9.115625 -1.2125 10.04375 -1 11 C0.83700789 11.77242269 0.83700789 11.77242269 3 12 C4.95625978 11.04451019 4.95625978 11.04451019 6 9 C5.76716851 5.85078091 5.76716851 5.85078091 5 3 C3.35 2.67 1.7 2.34 0 2 Z " fill="#302E3B" transform="translate(676,92)"/>
<path d="M0 0 C3.04335527 3.04335527 3.60305853 4.21121462 4.6875 8.1875 C5.06455078 9.53908203 5.06455078 9.53908203 5.44921875 10.91796875 C5.63097656 11.60503906 5.81273437 12.29210937 6 13 C5.34 13 4.68 13 4 13 C3.67 11.68 3.34 10.36 3 9 C1.35 9 -0.3 9 -2 9 C-2.33 10.32 -2.66 11.64 -3 13 C-3.66 12.67 -4.32 12.34 -5 12 C-3.35 8.04 -1.7 4.08 0 0 Z M0 4 C-0.33 4.99 -0.66 5.98 -1 7 C-0.01 6.67 0.98 6.34 2 6 C1.34 5.34 0.68 4.68 0 4 Z " fill="#302E3B" transform="translate(529,92)"/>
<path d="M0 0 C3.42931954 3.7559214 4.56429083 8.23466745 6 13 C5.01 12.67 4.02 12.34 3 12 C3 11.01 3 10.02 3 9 C1.35 9 -0.3 9 -2 9 C-2.33 10.32 -2.66 11.64 -3 13 C-3.66 13 -4.32 13 -5 13 C-4.54803755 11.39402675 -4.08817673 9.79027492 -3.625 8.1875 C-3.36976563 7.29417969 -3.11453125 6.40085937 -2.8515625 5.48046875 C-2 3 -2 3 0 0 Z M0 4 C-0.33 4.99 -0.66 5.98 -1 7 C-0.34 7 0.32 7 1 7 C0.67 6.01 0.34 5.02 0 4 Z " fill="#302E3B" transform="translate(601,92)"/>
<path d="M0 0 C0.33 0 0.66 0 1 0 C1 4.29 1 8.58 1 13 C0.67 13 0.34 13 0 13 C0 11.02 0 9.04 0 7 C-1.98 7 -3.96 7 -6 7 C-6 8.98 -6 10.96 -6 13 C-6.66 13 -7.32 13 -8 13 C-8 9.04 -8 5.08 -8 1 C-7.34 1 -6.68 1 -6 1 C-6 2.65 -6 4.3 -6 6 C-4.35 5.67 -2.7 5.34 -1 5 C-0.67 3.35 -0.34 1.7 0 0 Z " fill="#302E3B" transform="translate(522,92)"/>
<path d="M0 0 C1.010625 0.0825 2.02125 0.165 3.0625 0.25 C3.7225 1.24 4.3825 2.23 5.0625 3.25 C4.7325 3.91 4.4025 4.57 4.0625 5.25 C1.7525 5.25 -0.5575 5.25 -2.9375 5.25 C-3.5 3.3125 -3.5 3.3125 -3.9375 1.25 C-2.9375 0.25 -2.9375 0.25 0 0 Z " fill="#302E3B" transform="translate(610.9375,37.75)"/>
<path d="M0 0 C0.33 0 0.66 0 1 0 C1 3.63 1 7.26 1 11 C2.65 11 4.3 11 6 11 C6.33 11.66 6.66 12.32 7 13 C4.36 13 1.72 13 -1 13 C-1.02686553 11.02090602 -1.04633375 9.04171029 -1.0625 7.0625 C-1.07410156 5.96035156 -1.08570313 4.85820313 -1.09765625 3.72265625 C-1 1 -1 1 0 0 Z " fill="#302E3B" transform="translate(554,92)"/>
<path d="M0 0 C1.4540625 0.0309375 1.4540625 0.0309375 2.9375 0.0625 C3.5 2 3.5 2 3.9375 4.0625 C2.9375 5.0625 2.9375 5.0625 -0.125 5.125 C-1.094375 5.104375 -2.06375 5.08375 -3.0625 5.0625 C-3.625 3.125 -3.625 3.125 -4.0625 1.0625 C-3.0625 0.0625 -3.0625 0.0625 0 0 Z " fill="#302E3B" transform="translate(237.0625,37.9375)"/>
<path d="M0 0 C1.22589844 0.15275391 1.22589844 0.15275391 2.4765625 0.30859375 C3.41628906 0.43427734 3.41628906 0.43427734 4.375 0.5625 C4.705 1.5525 5.035 2.5425 5.375 3.5625 C0.85781619 4.93134358 -2.21274263 4.03325246 -6.625 2.5625 C-6.625 1.9025 -6.625 1.2425 -6.625 0.5625 C-4.10446405 -0.69776798 -2.7707902 -0.35624445 0 0 Z " fill="#302E3B" transform="translate(285.625,56.4375)"/>
<path d="M0 0 C2.97 0 5.94 0 9 0 C9 0.66 9 1.32 9 2 C7.68 2 6.36 2 5 2 C5 5.63 5 9.26 5 13 C4.67 13 4.34 13 4 13 C4 9.37 4 5.74 4 2 C2.68 2 1.36 2 0 2 C0 1.34 0 0.68 0 0 Z " fill="#302E3B" transform="translate(560,92)"/>
<path d="M0 0 C0.99 0.495 0.99 0.495 2 1 C2 4.96 2 8.92 2 13 C1.34 13 0.68 13 0 13 C0 8.71 0 4.42 0 0 Z " fill="#302E3B" transform="translate(669,92)"/>
<path d="M0 0 C0.66 0.33 1.32 0.66 2 1 C2.625 3.5625 2.625 3.5625 3 6 C0.36 5.67 -2.28 5.34 -5 5 C-3.35 3.35 -1.7 1.7 0 0 Z " fill="#FF0000" transform="translate(82,87)"/>
<path d="M0 0 C0.66 0 1.32 0 2 0 C2 3.96 2 7.92 2 12 C1.34 12 0.68 12 0 12 C0 8.04 0 4.08 0 0 Z " fill="#302E3B" transform="translate(549,93)"/>
<path d="M0 0 C2.97 1.98 2.97 1.98 6 4 C3.35261084 5.4606285 2.10551666 6 -1 6 C-0.67 4.02 -0.34 2.04 0 0 Z " fill="#FF0000" transform="translate(30,87)"/>
</svg>
